G04 #@! TF.GenerationSoftware,KiCad,Pcbnew,6.0.0-rc1-unknown-r14177-12567c75*
G04 #@! TF.CreationDate,2018-10-23T17:28:43+02:00*
G04 #@! TF.ProjectId,pcbRadon,7063625261646F6E2E6B696361645F70,rev?*
G04 #@! TF.SameCoordinates,Original*
G04 #@! TF.FileFunction,Legend,Top*
G04 #@! TF.FilePolarity,Positive*
%FSLAX46Y46*%
G04 Gerber Fmt 4.6, Leading zero omitted, Abs format (unit mm)*
G04 Created by KiCad (PCBNEW 6.0.0-rc1-unknown-r14177-12567c75) date Tue 23 Oct 2018 17:28:43 CEST*
%MOMM*%
%LPD*%
G01*
G04 APERTURE LIST*
%ADD10C,0.120000*%
%ADD11C,0.150000*%
G04 APERTURE END LIST*
D10*
G04 #@! TO.C,J1*
X137982000Y-112582000D02*
X137982000Y-109922000D01*
X135382000Y-112582000D02*
X137982000Y-112582000D01*
X135382000Y-109922000D02*
X137982000Y-109922000D01*
X135382000Y-112582000D02*
X135382000Y-109922000D01*
X134112000Y-112582000D02*
X132782000Y-112582000D01*
X132782000Y-112582000D02*
X132782000Y-111252000D01*
G04 #@! TO.C,J2*
X175180000Y-102080000D02*
X183980000Y-102080000D01*
X183980000Y-102080000D02*
X183980000Y-111280000D01*
X169280000Y-104780000D02*
X169280000Y-102080000D01*
X169280000Y-102080000D02*
X171180000Y-102080000D01*
X183980000Y-111280000D02*
X169280000Y-111280000D01*
X169280000Y-111280000D02*
X169280000Y-108680000D01*
G04 #@! TO.C,J3*
X140402000Y-109922000D02*
X140402000Y-112582000D01*
X153162000Y-109922000D02*
X140402000Y-109922000D01*
X153162000Y-112582000D02*
X140402000Y-112582000D01*
X153162000Y-109922000D02*
X153162000Y-112582000D01*
X154432000Y-109922000D02*
X155762000Y-109922000D01*
X155762000Y-109922000D02*
X155762000Y-111252000D01*
G04 #@! TO.C,J4*
X160214000Y-100898000D02*
X162874000Y-100898000D01*
X160214000Y-93218000D02*
X160214000Y-100898000D01*
X162874000Y-93218000D02*
X162874000Y-100898000D01*
X160214000Y-93218000D02*
X162874000Y-93218000D01*
X160214000Y-91948000D02*
X160214000Y-90618000D01*
X160214000Y-90618000D02*
X161544000Y-90618000D01*
G04 #@! TO.C,JP1*
X162874000Y-102302000D02*
X160214000Y-102302000D01*
X162874000Y-104902000D02*
X162874000Y-102302000D01*
X160214000Y-104902000D02*
X160214000Y-102302000D01*
X162874000Y-104902000D02*
X160214000Y-104902000D01*
X162874000Y-106172000D02*
X162874000Y-107502000D01*
X162874000Y-107502000D02*
X161544000Y-107502000D01*
G04 #@! TO.C,JP2*
X162874000Y-84014000D02*
X160214000Y-84014000D01*
X162874000Y-86614000D02*
X162874000Y-84014000D01*
X160214000Y-86614000D02*
X160214000Y-84014000D01*
X162874000Y-86614000D02*
X160214000Y-86614000D01*
X162874000Y-87884000D02*
X162874000Y-89214000D01*
X162874000Y-89214000D02*
X161544000Y-89214000D01*
G04 #@! TO.C,K1*
X164208000Y-92640000D02*
X164208000Y-99240000D01*
X164208000Y-83640000D02*
X164208000Y-90240000D01*
X164208000Y-83640000D02*
X184008000Y-83640000D01*
X184008000Y-83640000D02*
X184008000Y-99240000D01*
X184008000Y-99240000D02*
X164208000Y-99240000D01*
X179758000Y-95640000D02*
X179758000Y-93190000D01*
X179758000Y-87240000D02*
X179758000Y-89740000D01*
X169158000Y-97490000D02*
X171658000Y-97490000D01*
X168258000Y-91490000D02*
X167458000Y-91490000D01*
X171658000Y-85490000D02*
X169158000Y-85490000D01*
X175058000Y-91490000D02*
X176558000Y-91490000D01*
X176558000Y-91490000D02*
X181158000Y-88990000D01*
X175058000Y-95090000D02*
X168258000Y-95090000D01*
X175058000Y-91490000D02*
X175058000Y-95090000D01*
X168258000Y-91490000D02*
X168258000Y-95090000D01*
X171658000Y-85490000D02*
X171658000Y-89690000D01*
X171658000Y-93290000D02*
X171658000Y-97490000D01*
X173658000Y-93290000D02*
X169658000Y-89690000D01*
X169658000Y-93290000D02*
X169658000Y-89690000D01*
X169658000Y-89690000D02*
X173658000Y-89690000D01*
X173658000Y-89690000D02*
X173658000Y-93290000D01*
X173658000Y-93290000D02*
X169658000Y-93290000D01*
G04 #@! TO.C,Q1*
X157948000Y-109394000D02*
X168188000Y-109394000D01*
X157948000Y-114035000D02*
X168188000Y-114035000D01*
X157948000Y-109394000D02*
X157948000Y-114035000D01*
X168188000Y-109394000D02*
X168188000Y-114035000D01*
X157948000Y-110904000D02*
X168188000Y-110904000D01*
X161218000Y-109394000D02*
X161218000Y-110904000D01*
X164919000Y-109394000D02*
X164919000Y-110904000D01*
G04 #@! TO.C,R1*
X165136000Y-107604000D02*
X164806000Y-107604000D01*
X164806000Y-107604000D02*
X164806000Y-101184000D01*
X164806000Y-101184000D02*
X165136000Y-101184000D01*
X167096000Y-107604000D02*
X167426000Y-107604000D01*
X167426000Y-107604000D02*
X167426000Y-101184000D01*
X167426000Y-101184000D02*
X167096000Y-101184000D01*
G04 #@! TO.C,R2*
X142910000Y-105120000D02*
X142910000Y-105450000D01*
X142910000Y-105450000D02*
X136490000Y-105450000D01*
X136490000Y-105450000D02*
X136490000Y-105120000D01*
X142910000Y-103160000D02*
X142910000Y-102830000D01*
X142910000Y-102830000D02*
X136490000Y-102830000D01*
X136490000Y-102830000D02*
X136490000Y-103160000D01*
G04 #@! TO.C,R3*
X146650000Y-103160000D02*
X146650000Y-102830000D01*
X146650000Y-102830000D02*
X153070000Y-102830000D01*
X153070000Y-102830000D02*
X153070000Y-103160000D01*
X146650000Y-105120000D02*
X146650000Y-105450000D01*
X146650000Y-105450000D02*
X153070000Y-105450000D01*
X153070000Y-105450000D02*
X153070000Y-105120000D01*
D11*
G04 #@! TO.C,U2*
X137824981Y-91948000D02*
G75*
G03X137824981Y-91948000I-283981J0D01*
G01*
X153924000Y-90170000D02*
X153924000Y-99822000D01*
X135890000Y-90170000D02*
X135890000Y-99568000D01*
G04 #@! TO.C,U1*
X131572095Y-86828380D02*
X131572095Y-87637904D01*
X131619714Y-87733142D01*
X131667333Y-87780761D01*
X131762571Y-87828380D01*
X131953047Y-87828380D01*
X132048285Y-87780761D01*
X132095904Y-87733142D01*
X132143523Y-87637904D01*
X132143523Y-86828380D01*
X133143523Y-87828380D02*
X132572095Y-87828380D01*
X132857809Y-87828380D02*
X132857809Y-86828380D01*
X132762571Y-86971238D01*
X132667333Y-87066476D01*
X132572095Y-87114095D01*
G04 #@! TO.C,J1*
X135048666Y-108418380D02*
X135048666Y-109132666D01*
X135001047Y-109275523D01*
X134905809Y-109370761D01*
X134762952Y-109418380D01*
X134667714Y-109418380D01*
X136048666Y-109418380D02*
X135477238Y-109418380D01*
X135762952Y-109418380D02*
X135762952Y-108418380D01*
X135667714Y-108561238D01*
X135572476Y-108656476D01*
X135477238Y-108704095D01*
G04 #@! TO.C,J2*
X181276666Y-106386380D02*
X181276666Y-107100666D01*
X181229047Y-107243523D01*
X181133809Y-107338761D01*
X180990952Y-107386380D01*
X180895714Y-107386380D01*
X181705238Y-106481619D02*
X181752857Y-106434000D01*
X181848095Y-106386380D01*
X182086190Y-106386380D01*
X182181428Y-106434000D01*
X182229047Y-106481619D01*
X182276666Y-106576857D01*
X182276666Y-106672095D01*
X182229047Y-106814952D01*
X181657619Y-107386380D01*
X182276666Y-107386380D01*
G04 #@! TO.C,J3*
X147748666Y-108418380D02*
X147748666Y-109132666D01*
X147701047Y-109275523D01*
X147605809Y-109370761D01*
X147462952Y-109418380D01*
X147367714Y-109418380D01*
X148129619Y-108418380D02*
X148748666Y-108418380D01*
X148415333Y-108799333D01*
X148558190Y-108799333D01*
X148653428Y-108846952D01*
X148701047Y-108894571D01*
X148748666Y-108989809D01*
X148748666Y-109227904D01*
X148701047Y-109323142D01*
X148653428Y-109370761D01*
X148558190Y-109418380D01*
X148272476Y-109418380D01*
X148177238Y-109370761D01*
X148129619Y-109323142D01*
G04 #@! TO.C,J4*
X158710380Y-96599333D02*
X159424666Y-96599333D01*
X159567523Y-96646952D01*
X159662761Y-96742190D01*
X159710380Y-96885047D01*
X159710380Y-96980285D01*
X159043714Y-95694571D02*
X159710380Y-95694571D01*
X158662761Y-95932666D02*
X159377047Y-96170761D01*
X159377047Y-95551714D01*
G04 #@! TO.C,JP1*
X158202380Y-103957333D02*
X158916666Y-103957333D01*
X159059523Y-104004952D01*
X159154761Y-104100190D01*
X159202380Y-104243047D01*
X159202380Y-104338285D01*
X159202380Y-103481142D02*
X158202380Y-103481142D01*
X158202380Y-103100190D01*
X158250000Y-103004952D01*
X158297619Y-102957333D01*
X158392857Y-102909714D01*
X158535714Y-102909714D01*
X158630952Y-102957333D01*
X158678571Y-103004952D01*
X158726190Y-103100190D01*
X158726190Y-103481142D01*
X159202380Y-101957333D02*
X159202380Y-102528761D01*
X159202380Y-102243047D02*
X158202380Y-102243047D01*
X158345238Y-102338285D01*
X158440476Y-102433523D01*
X158488095Y-102528761D01*
G04 #@! TO.C,JP2*
X163536380Y-86939333D02*
X164250666Y-86939333D01*
X164393523Y-86986952D01*
X164488761Y-87082190D01*
X164536380Y-87225047D01*
X164536380Y-87320285D01*
X164536380Y-86463142D02*
X163536380Y-86463142D01*
X163536380Y-86082190D01*
X163584000Y-85986952D01*
X163631619Y-85939333D01*
X163726857Y-85891714D01*
X163869714Y-85891714D01*
X163964952Y-85939333D01*
X164012571Y-85986952D01*
X164060190Y-86082190D01*
X164060190Y-86463142D01*
X163631619Y-85510761D02*
X163584000Y-85463142D01*
X163536380Y-85367904D01*
X163536380Y-85129809D01*
X163584000Y-85034571D01*
X163631619Y-84986952D01*
X163726857Y-84939333D01*
X163822095Y-84939333D01*
X163964952Y-84986952D01*
X164536380Y-85558380D01*
X164536380Y-84939333D01*
G04 #@! TO.C,K1*
X174267904Y-97988380D02*
X174267904Y-96988380D01*
X174839333Y-97988380D02*
X174410761Y-97416952D01*
X174839333Y-96988380D02*
X174267904Y-97559809D01*
X175791714Y-97988380D02*
X175220285Y-97988380D01*
X175506000Y-97988380D02*
X175506000Y-96988380D01*
X175410761Y-97131238D01*
X175315523Y-97226476D01*
X175220285Y-97274095D01*
G04 #@! TO.C,Q1*
X168616380Y-111918761D02*
X168664000Y-111823523D01*
X168759238Y-111728285D01*
X168902095Y-111585428D01*
X168949714Y-111490190D01*
X168949714Y-111394952D01*
X168711619Y-111442571D02*
X168759238Y-111347333D01*
X168854476Y-111252095D01*
X169044952Y-111204476D01*
X169378285Y-111204476D01*
X169568761Y-111252095D01*
X169664000Y-111347333D01*
X169711619Y-111442571D01*
X169711619Y-111633047D01*
X169664000Y-111728285D01*
X169568761Y-111823523D01*
X169378285Y-111871142D01*
X169044952Y-111871142D01*
X168854476Y-111823523D01*
X168759238Y-111728285D01*
X168711619Y-111633047D01*
X168711619Y-111442571D01*
X168711619Y-112823523D02*
X168711619Y-112252095D01*
X168711619Y-112537809D02*
X169711619Y-112537809D01*
X169568761Y-112442571D01*
X169473523Y-112347333D01*
X169425904Y-112252095D01*
G04 #@! TO.C,R1*
X166568380Y-104306666D02*
X166092190Y-104640000D01*
X166568380Y-104878095D02*
X165568380Y-104878095D01*
X165568380Y-104497142D01*
X165616000Y-104401904D01*
X165663619Y-104354285D01*
X165758857Y-104306666D01*
X165901714Y-104306666D01*
X165996952Y-104354285D01*
X166044571Y-104401904D01*
X166092190Y-104497142D01*
X166092190Y-104878095D01*
X166568380Y-103354285D02*
X166568380Y-103925714D01*
X166568380Y-103640000D02*
X165568380Y-103640000D01*
X165711238Y-103735238D01*
X165806476Y-103830476D01*
X165854095Y-103925714D01*
G04 #@! TO.C,R2*
X139533333Y-102306380D02*
X139200000Y-101830190D01*
X138961904Y-102306380D02*
X138961904Y-101306380D01*
X139342857Y-101306380D01*
X139438095Y-101354000D01*
X139485714Y-101401619D01*
X139533333Y-101496857D01*
X139533333Y-101639714D01*
X139485714Y-101734952D01*
X139438095Y-101782571D01*
X139342857Y-101830190D01*
X138961904Y-101830190D01*
X139914285Y-101401619D02*
X139961904Y-101354000D01*
X140057142Y-101306380D01*
X140295238Y-101306380D01*
X140390476Y-101354000D01*
X140438095Y-101401619D01*
X140485714Y-101496857D01*
X140485714Y-101592095D01*
X140438095Y-101734952D01*
X139866666Y-102306380D01*
X140485714Y-102306380D01*
G04 #@! TO.C,R3*
X149693333Y-102282380D02*
X149360000Y-101806190D01*
X149121904Y-102282380D02*
X149121904Y-101282380D01*
X149502857Y-101282380D01*
X149598095Y-101330000D01*
X149645714Y-101377619D01*
X149693333Y-101472857D01*
X149693333Y-101615714D01*
X149645714Y-101710952D01*
X149598095Y-101758571D01*
X149502857Y-101806190D01*
X149121904Y-101806190D01*
X150026666Y-101282380D02*
X150645714Y-101282380D01*
X150312380Y-101663333D01*
X150455238Y-101663333D01*
X150550476Y-101710952D01*
X150598095Y-101758571D01*
X150645714Y-101853809D01*
X150645714Y-102091904D01*
X150598095Y-102187142D01*
X150550476Y-102234761D01*
X150455238Y-102282380D01*
X150169523Y-102282380D01*
X150074285Y-102234761D01*
X150026666Y-102187142D01*
G04 #@! TO.C,U2*
X145542095Y-97242380D02*
X145542095Y-98051904D01*
X145589714Y-98147142D01*
X145637333Y-98194761D01*
X145732571Y-98242380D01*
X145923047Y-98242380D01*
X146018285Y-98194761D01*
X146065904Y-98147142D01*
X146113523Y-98051904D01*
X146113523Y-97242380D01*
X146542095Y-97337619D02*
X146589714Y-97290000D01*
X146684952Y-97242380D01*
X146923047Y-97242380D01*
X147018285Y-97290000D01*
X147065904Y-97337619D01*
X147113523Y-97432857D01*
X147113523Y-97528095D01*
X147065904Y-97670952D01*
X146494476Y-98242380D01*
X147113523Y-98242380D01*
G04 #@! TD*
M02*
