G04 #@! TF.GenerationSoftware,KiCad,Pcbnew,6.0.0-rc1-unknown-r14177-12567c75*
G04 #@! TF.CreationDate,2018-10-23T17:48:22+02:00*
G04 #@! TF.ProjectId,pcbRadon,7063625261646F6E2E6B696361645F70,rev?*
G04 #@! TF.SameCoordinates,Original*
G04 #@! TF.FileFunction,Soldermask,Bot*
G04 #@! TF.FilePolarity,Negative*
%FSLAX46Y46*%
G04 Gerber Fmt 4.6, Leading zero omitted, Abs format (unit mm)*
G04 Created by KiCad (PCBNEW 6.0.0-rc1-unknown-r14177-12567c75) date Tue 23 Oct 2018 17:48:22 CEST*
%MOMM*%
%LPD*%
G01*
G04 APERTURE LIST*
%ADD10C,0.100000*%
G04 APERTURE END LIST*
D10*
G36*
X165823639Y-110929916D02*
X166030986Y-110992815D01*
X166030988Y-110992816D01*
X166222084Y-111094958D01*
X166389581Y-111232419D01*
X166527042Y-111399916D01*
X166629184Y-111591012D01*
X166629185Y-111591014D01*
X166692084Y-111798361D01*
X166713322Y-112014000D01*
X166701970Y-112129267D01*
X166692084Y-112229638D01*
X166629184Y-112436988D01*
X166527042Y-112628084D01*
X166389581Y-112795581D01*
X166222084Y-112933042D01*
X166030988Y-113035184D01*
X166030986Y-113035185D01*
X165823639Y-113098084D01*
X165662038Y-113114000D01*
X165553962Y-113114000D01*
X165392361Y-113098084D01*
X165185014Y-113035185D01*
X165185012Y-113035184D01*
X164993916Y-112933042D01*
X164826419Y-112795581D01*
X164688958Y-112628084D01*
X164586816Y-112436988D01*
X164523916Y-112229638D01*
X164514031Y-112129267D01*
X164502678Y-112014000D01*
X164523916Y-111798361D01*
X164586815Y-111591014D01*
X164586816Y-111591012D01*
X164688958Y-111399916D01*
X164826419Y-111232419D01*
X164993916Y-111094958D01*
X165185012Y-110992816D01*
X165185014Y-110992815D01*
X165392361Y-110929916D01*
X165553962Y-110914000D01*
X165662038Y-110914000D01*
X165823639Y-110929916D01*
X165823639Y-110929916D01*
G37*
G36*
X161628000Y-113114000D02*
X159428000Y-113114000D01*
X159428000Y-110914000D01*
X161628000Y-110914000D01*
X161628000Y-113114000D01*
X161628000Y-113114000D01*
G37*
G36*
X163283639Y-110929916D02*
X163490986Y-110992815D01*
X163490988Y-110992816D01*
X163682084Y-111094958D01*
X163849581Y-111232419D01*
X163987042Y-111399916D01*
X164089184Y-111591012D01*
X164089185Y-111591014D01*
X164152084Y-111798361D01*
X164173322Y-112014000D01*
X164161970Y-112129267D01*
X164152084Y-112229638D01*
X164089184Y-112436988D01*
X163987042Y-112628084D01*
X163849581Y-112795581D01*
X163682084Y-112933042D01*
X163490988Y-113035184D01*
X163490986Y-113035185D01*
X163283639Y-113098084D01*
X163122038Y-113114000D01*
X163013962Y-113114000D01*
X162852361Y-113098084D01*
X162645014Y-113035185D01*
X162645012Y-113035184D01*
X162453916Y-112933042D01*
X162286419Y-112795581D01*
X162148958Y-112628084D01*
X162046816Y-112436988D01*
X161983916Y-112229638D01*
X161974031Y-112129267D01*
X161962678Y-112014000D01*
X161983916Y-111798361D01*
X162046815Y-111591014D01*
X162046816Y-111591012D01*
X162148958Y-111399916D01*
X162286419Y-111232419D01*
X162453916Y-111094958D01*
X162645012Y-110992816D01*
X162645014Y-110992815D01*
X162852361Y-110929916D01*
X163013962Y-110914000D01*
X163122038Y-110914000D01*
X163283639Y-110929916D01*
X163283639Y-110929916D01*
G37*
G36*
X146940707Y-110209596D02*
X147017836Y-110217193D01*
X147149787Y-110257220D01*
X147215763Y-110277233D01*
X147398172Y-110374733D01*
X147558054Y-110505946D01*
X147689267Y-110665828D01*
X147786767Y-110848237D01*
X147786767Y-110848238D01*
X147846807Y-111046164D01*
X147867080Y-111252000D01*
X147846807Y-111457836D01*
X147806780Y-111589787D01*
X147786767Y-111655763D01*
X147689267Y-111838172D01*
X147558054Y-111998054D01*
X147398172Y-112129267D01*
X147215763Y-112226767D01*
X147149787Y-112246780D01*
X147017836Y-112286807D01*
X146940707Y-112294404D01*
X146863580Y-112302000D01*
X146760420Y-112302000D01*
X146683293Y-112294404D01*
X146606164Y-112286807D01*
X146474213Y-112246780D01*
X146408237Y-112226767D01*
X146225828Y-112129267D01*
X146065946Y-111998054D01*
X145934733Y-111838172D01*
X145837233Y-111655763D01*
X145817220Y-111589787D01*
X145777193Y-111457836D01*
X145756920Y-111252000D01*
X145777193Y-111046164D01*
X145837233Y-110848238D01*
X145837233Y-110848237D01*
X145934733Y-110665828D01*
X146065946Y-110505946D01*
X146225828Y-110374733D01*
X146408237Y-110277233D01*
X146474213Y-110257220D01*
X146606164Y-110217193D01*
X146683293Y-110209596D01*
X146760420Y-110202000D01*
X146863580Y-110202000D01*
X146940707Y-110209596D01*
X146940707Y-110209596D01*
G37*
G36*
X135162000Y-112302000D02*
X133062000Y-112302000D01*
X133062000Y-110202000D01*
X135162000Y-110202000D01*
X135162000Y-112302000D01*
X135162000Y-112302000D01*
G37*
G36*
X136780707Y-110209596D02*
X136857836Y-110217193D01*
X136989787Y-110257220D01*
X137055763Y-110277233D01*
X137238172Y-110374733D01*
X137398054Y-110505946D01*
X137529267Y-110665828D01*
X137626767Y-110848237D01*
X137626767Y-110848238D01*
X137686807Y-111046164D01*
X137707080Y-111252000D01*
X137686807Y-111457836D01*
X137646780Y-111589787D01*
X137626767Y-111655763D01*
X137529267Y-111838172D01*
X137398054Y-111998054D01*
X137238172Y-112129267D01*
X137055763Y-112226767D01*
X136989787Y-112246780D01*
X136857836Y-112286807D01*
X136780707Y-112294404D01*
X136703580Y-112302000D01*
X136600420Y-112302000D01*
X136523293Y-112294404D01*
X136446164Y-112286807D01*
X136314213Y-112246780D01*
X136248237Y-112226767D01*
X136065828Y-112129267D01*
X135905946Y-111998054D01*
X135774733Y-111838172D01*
X135677233Y-111655763D01*
X135657220Y-111589787D01*
X135617193Y-111457836D01*
X135596920Y-111252000D01*
X135617193Y-111046164D01*
X135677233Y-110848238D01*
X135677233Y-110848237D01*
X135774733Y-110665828D01*
X135905946Y-110505946D01*
X136065828Y-110374733D01*
X136248237Y-110277233D01*
X136314213Y-110257220D01*
X136446164Y-110217193D01*
X136523293Y-110209596D01*
X136600420Y-110202000D01*
X136703580Y-110202000D01*
X136780707Y-110209596D01*
X136780707Y-110209596D01*
G37*
G36*
X155482000Y-112302000D02*
X153382000Y-112302000D01*
X153382000Y-110202000D01*
X155482000Y-110202000D01*
X155482000Y-112302000D01*
X155482000Y-112302000D01*
G37*
G36*
X152020707Y-110209596D02*
X152097836Y-110217193D01*
X152229787Y-110257220D01*
X152295763Y-110277233D01*
X152478172Y-110374733D01*
X152638054Y-110505946D01*
X152769267Y-110665828D01*
X152866767Y-110848237D01*
X152866767Y-110848238D01*
X152926807Y-111046164D01*
X152947080Y-111252000D01*
X152926807Y-111457836D01*
X152886780Y-111589787D01*
X152866767Y-111655763D01*
X152769267Y-111838172D01*
X152638054Y-111998054D01*
X152478172Y-112129267D01*
X152295763Y-112226767D01*
X152229787Y-112246780D01*
X152097836Y-112286807D01*
X152020707Y-112294404D01*
X151943580Y-112302000D01*
X151840420Y-112302000D01*
X151763293Y-112294404D01*
X151686164Y-112286807D01*
X151554213Y-112246780D01*
X151488237Y-112226767D01*
X151305828Y-112129267D01*
X151145946Y-111998054D01*
X151014733Y-111838172D01*
X150917233Y-111655763D01*
X150897220Y-111589787D01*
X150857193Y-111457836D01*
X150836920Y-111252000D01*
X150857193Y-111046164D01*
X150917233Y-110848238D01*
X150917233Y-110848237D01*
X151014733Y-110665828D01*
X151145946Y-110505946D01*
X151305828Y-110374733D01*
X151488237Y-110277233D01*
X151554213Y-110257220D01*
X151686164Y-110217193D01*
X151763293Y-110209596D01*
X151840420Y-110202000D01*
X151943580Y-110202000D01*
X152020707Y-110209596D01*
X152020707Y-110209596D01*
G37*
G36*
X149480707Y-110209596D02*
X149557836Y-110217193D01*
X149689787Y-110257220D01*
X149755763Y-110277233D01*
X149938172Y-110374733D01*
X150098054Y-110505946D01*
X150229267Y-110665828D01*
X150326767Y-110848237D01*
X150326767Y-110848238D01*
X150386807Y-111046164D01*
X150407080Y-111252000D01*
X150386807Y-111457836D01*
X150346780Y-111589787D01*
X150326767Y-111655763D01*
X150229267Y-111838172D01*
X150098054Y-111998054D01*
X149938172Y-112129267D01*
X149755763Y-112226767D01*
X149689787Y-112246780D01*
X149557836Y-112286807D01*
X149480707Y-112294404D01*
X149403580Y-112302000D01*
X149300420Y-112302000D01*
X149223293Y-112294404D01*
X149146164Y-112286807D01*
X149014213Y-112246780D01*
X148948237Y-112226767D01*
X148765828Y-112129267D01*
X148605946Y-111998054D01*
X148474733Y-111838172D01*
X148377233Y-111655763D01*
X148357220Y-111589787D01*
X148317193Y-111457836D01*
X148296920Y-111252000D01*
X148317193Y-111046164D01*
X148377233Y-110848238D01*
X148377233Y-110848237D01*
X148474733Y-110665828D01*
X148605946Y-110505946D01*
X148765828Y-110374733D01*
X148948237Y-110277233D01*
X149014213Y-110257220D01*
X149146164Y-110217193D01*
X149223293Y-110209596D01*
X149300420Y-110202000D01*
X149403580Y-110202000D01*
X149480707Y-110209596D01*
X149480707Y-110209596D01*
G37*
G36*
X144400707Y-110209596D02*
X144477836Y-110217193D01*
X144609787Y-110257220D01*
X144675763Y-110277233D01*
X144858172Y-110374733D01*
X145018054Y-110505946D01*
X145149267Y-110665828D01*
X145246767Y-110848237D01*
X145246767Y-110848238D01*
X145306807Y-111046164D01*
X145327080Y-111252000D01*
X145306807Y-111457836D01*
X145266780Y-111589787D01*
X145246767Y-111655763D01*
X145149267Y-111838172D01*
X145018054Y-111998054D01*
X144858172Y-112129267D01*
X144675763Y-112226767D01*
X144609787Y-112246780D01*
X144477836Y-112286807D01*
X144400707Y-112294404D01*
X144323580Y-112302000D01*
X144220420Y-112302000D01*
X144143293Y-112294404D01*
X144066164Y-112286807D01*
X143934213Y-112246780D01*
X143868237Y-112226767D01*
X143685828Y-112129267D01*
X143525946Y-111998054D01*
X143394733Y-111838172D01*
X143297233Y-111655763D01*
X143277220Y-111589787D01*
X143237193Y-111457836D01*
X143216920Y-111252000D01*
X143237193Y-111046164D01*
X143297233Y-110848238D01*
X143297233Y-110848237D01*
X143394733Y-110665828D01*
X143525946Y-110505946D01*
X143685828Y-110374733D01*
X143868237Y-110277233D01*
X143934213Y-110257220D01*
X144066164Y-110217193D01*
X144143293Y-110209596D01*
X144220420Y-110202000D01*
X144323580Y-110202000D01*
X144400707Y-110209596D01*
X144400707Y-110209596D01*
G37*
G36*
X141860707Y-110209596D02*
X141937836Y-110217193D01*
X142069787Y-110257220D01*
X142135763Y-110277233D01*
X142318172Y-110374733D01*
X142478054Y-110505946D01*
X142609267Y-110665828D01*
X142706767Y-110848237D01*
X142706767Y-110848238D01*
X142766807Y-111046164D01*
X142787080Y-111252000D01*
X142766807Y-111457836D01*
X142726780Y-111589787D01*
X142706767Y-111655763D01*
X142609267Y-111838172D01*
X142478054Y-111998054D01*
X142318172Y-112129267D01*
X142135763Y-112226767D01*
X142069787Y-112246780D01*
X141937836Y-112286807D01*
X141860707Y-112294404D01*
X141783580Y-112302000D01*
X141680420Y-112302000D01*
X141603293Y-112294404D01*
X141526164Y-112286807D01*
X141394213Y-112246780D01*
X141328237Y-112226767D01*
X141145828Y-112129267D01*
X140985946Y-111998054D01*
X140854733Y-111838172D01*
X140757233Y-111655763D01*
X140737220Y-111589787D01*
X140697193Y-111457836D01*
X140676920Y-111252000D01*
X140697193Y-111046164D01*
X140757233Y-110848238D01*
X140757233Y-110848237D01*
X140854733Y-110665828D01*
X140985946Y-110505946D01*
X141145828Y-110374733D01*
X141328237Y-110277233D01*
X141394213Y-110257220D01*
X141526164Y-110217193D01*
X141603293Y-110209596D01*
X141680420Y-110202000D01*
X141783580Y-110202000D01*
X141860707Y-110209596D01*
X141860707Y-110209596D01*
G37*
G36*
X166291770Y-107219372D02*
X166407689Y-107242429D01*
X166589678Y-107317811D01*
X166753463Y-107427249D01*
X166892751Y-107566537D01*
X167002189Y-107730322D01*
X167077571Y-107912311D01*
X167100628Y-108028230D01*
X167103915Y-108044750D01*
X167116000Y-108105509D01*
X167116000Y-108302491D01*
X167077571Y-108495689D01*
X167002189Y-108677678D01*
X166892751Y-108841463D01*
X166753463Y-108980751D01*
X166589678Y-109090189D01*
X166407689Y-109165571D01*
X166291770Y-109188628D01*
X166214493Y-109204000D01*
X166017507Y-109204000D01*
X165940230Y-109188628D01*
X165824311Y-109165571D01*
X165642322Y-109090189D01*
X165478537Y-108980751D01*
X165339249Y-108841463D01*
X165229811Y-108677678D01*
X165154429Y-108495689D01*
X165116000Y-108302491D01*
X165116000Y-108105509D01*
X165128086Y-108044750D01*
X165131372Y-108028230D01*
X165154429Y-107912311D01*
X165229811Y-107730322D01*
X165339249Y-107566537D01*
X165478537Y-107427249D01*
X165642322Y-107317811D01*
X165824311Y-107242429D01*
X165940230Y-107219372D01*
X166017507Y-107204000D01*
X166214493Y-107204000D01*
X166291770Y-107219372D01*
X166291770Y-107219372D01*
G37*
G36*
X152680603Y-107024968D02*
X152680606Y-107024969D01*
X152680605Y-107024969D01*
X152855678Y-107097486D01*
X152855679Y-107097487D01*
X153013241Y-107202767D01*
X153147233Y-107336759D01*
X153147234Y-107336761D01*
X153252514Y-107494322D01*
X153282425Y-107566534D01*
X153325032Y-107669397D01*
X153362000Y-107855250D01*
X153362000Y-108044750D01*
X153325032Y-108230603D01*
X153325031Y-108230605D01*
X153252514Y-108405678D01*
X153252513Y-108405679D01*
X153147233Y-108563241D01*
X153013241Y-108697233D01*
X152933923Y-108750232D01*
X152855678Y-108802514D01*
X152720266Y-108858603D01*
X152680603Y-108875032D01*
X152494750Y-108912000D01*
X152305250Y-108912000D01*
X152119397Y-108875032D01*
X152079734Y-108858603D01*
X151944322Y-108802514D01*
X151866077Y-108750232D01*
X151786759Y-108697233D01*
X151652767Y-108563241D01*
X151547487Y-108405679D01*
X151547486Y-108405678D01*
X151474969Y-108230605D01*
X151474968Y-108230603D01*
X151438000Y-108044750D01*
X151438000Y-107855250D01*
X151474968Y-107669397D01*
X151517575Y-107566534D01*
X151547486Y-107494322D01*
X151652766Y-107336761D01*
X151652767Y-107336759D01*
X151786759Y-107202767D01*
X151944321Y-107097487D01*
X151944322Y-107097486D01*
X152119395Y-107024969D01*
X152119394Y-107024969D01*
X152119397Y-107024968D01*
X152305250Y-106988000D01*
X152494750Y-106988000D01*
X152680603Y-107024968D01*
X152680603Y-107024968D01*
G37*
G36*
X134900603Y-107024968D02*
X134900606Y-107024969D01*
X134900605Y-107024969D01*
X135075678Y-107097486D01*
X135075679Y-107097487D01*
X135233241Y-107202767D01*
X135367233Y-107336759D01*
X135367234Y-107336761D01*
X135472514Y-107494322D01*
X135502425Y-107566534D01*
X135545032Y-107669397D01*
X135582000Y-107855250D01*
X135582000Y-108044750D01*
X135545032Y-108230603D01*
X135545031Y-108230605D01*
X135472514Y-108405678D01*
X135472513Y-108405679D01*
X135367233Y-108563241D01*
X135233241Y-108697233D01*
X135153923Y-108750232D01*
X135075678Y-108802514D01*
X134940266Y-108858603D01*
X134900603Y-108875032D01*
X134714750Y-108912000D01*
X134525250Y-108912000D01*
X134339397Y-108875032D01*
X134299734Y-108858603D01*
X134164322Y-108802514D01*
X134086077Y-108750232D01*
X134006759Y-108697233D01*
X133872767Y-108563241D01*
X133767487Y-108405679D01*
X133767486Y-108405678D01*
X133694969Y-108230605D01*
X133694968Y-108230603D01*
X133658000Y-108044750D01*
X133658000Y-107855250D01*
X133694968Y-107669397D01*
X133737575Y-107566534D01*
X133767486Y-107494322D01*
X133872766Y-107336761D01*
X133872767Y-107336759D01*
X134006759Y-107202767D01*
X134164321Y-107097487D01*
X134164322Y-107097486D01*
X134339395Y-107024969D01*
X134339394Y-107024969D01*
X134339397Y-107024968D01*
X134525250Y-106988000D01*
X134714750Y-106988000D01*
X134900603Y-107024968D01*
X134900603Y-107024968D01*
G37*
G36*
X137440603Y-107024968D02*
X137440606Y-107024969D01*
X137440605Y-107024969D01*
X137615678Y-107097486D01*
X137615679Y-107097487D01*
X137773241Y-107202767D01*
X137907233Y-107336759D01*
X137907234Y-107336761D01*
X138012514Y-107494322D01*
X138042425Y-107566534D01*
X138085032Y-107669397D01*
X138122000Y-107855250D01*
X138122000Y-108044750D01*
X138085032Y-108230603D01*
X138085031Y-108230605D01*
X138012514Y-108405678D01*
X138012513Y-108405679D01*
X137907233Y-108563241D01*
X137773241Y-108697233D01*
X137693923Y-108750232D01*
X137615678Y-108802514D01*
X137480266Y-108858603D01*
X137440603Y-108875032D01*
X137254750Y-108912000D01*
X137065250Y-108912000D01*
X136879397Y-108875032D01*
X136839734Y-108858603D01*
X136704322Y-108802514D01*
X136626077Y-108750232D01*
X136546759Y-108697233D01*
X136412767Y-108563241D01*
X136307487Y-108405679D01*
X136307486Y-108405678D01*
X136234969Y-108230605D01*
X136234968Y-108230603D01*
X136198000Y-108044750D01*
X136198000Y-107855250D01*
X136234968Y-107669397D01*
X136277575Y-107566534D01*
X136307486Y-107494322D01*
X136412766Y-107336761D01*
X136412767Y-107336759D01*
X136546759Y-107202767D01*
X136704321Y-107097487D01*
X136704322Y-107097486D01*
X136879395Y-107024969D01*
X136879394Y-107024969D01*
X136879397Y-107024968D01*
X137065250Y-106988000D01*
X137254750Y-106988000D01*
X137440603Y-107024968D01*
X137440603Y-107024968D01*
G37*
G36*
X139980603Y-107024968D02*
X139980606Y-107024969D01*
X139980605Y-107024969D01*
X140155678Y-107097486D01*
X140155679Y-107097487D01*
X140313241Y-107202767D01*
X140447233Y-107336759D01*
X140447234Y-107336761D01*
X140552514Y-107494322D01*
X140582425Y-107566534D01*
X140625032Y-107669397D01*
X140662000Y-107855250D01*
X140662000Y-108044750D01*
X140625032Y-108230603D01*
X140625031Y-108230605D01*
X140552514Y-108405678D01*
X140552513Y-108405679D01*
X140447233Y-108563241D01*
X140313241Y-108697233D01*
X140233923Y-108750232D01*
X140155678Y-108802514D01*
X140020266Y-108858603D01*
X139980603Y-108875032D01*
X139794750Y-108912000D01*
X139605250Y-108912000D01*
X139419397Y-108875032D01*
X139379734Y-108858603D01*
X139244322Y-108802514D01*
X139166077Y-108750232D01*
X139086759Y-108697233D01*
X138952767Y-108563241D01*
X138847487Y-108405679D01*
X138847486Y-108405678D01*
X138774969Y-108230605D01*
X138774968Y-108230603D01*
X138738000Y-108044750D01*
X138738000Y-107855250D01*
X138774968Y-107669397D01*
X138817575Y-107566534D01*
X138847486Y-107494322D01*
X138952766Y-107336761D01*
X138952767Y-107336759D01*
X139086759Y-107202767D01*
X139244321Y-107097487D01*
X139244322Y-107097486D01*
X139419395Y-107024969D01*
X139419394Y-107024969D01*
X139419397Y-107024968D01*
X139605250Y-106988000D01*
X139794750Y-106988000D01*
X139980603Y-107024968D01*
X139980603Y-107024968D01*
G37*
G36*
X142520603Y-107024968D02*
X142520606Y-107024969D01*
X142520605Y-107024969D01*
X142695678Y-107097486D01*
X142695679Y-107097487D01*
X142853241Y-107202767D01*
X142987233Y-107336759D01*
X142987234Y-107336761D01*
X143092514Y-107494322D01*
X143122425Y-107566534D01*
X143165032Y-107669397D01*
X143202000Y-107855250D01*
X143202000Y-108044750D01*
X143165032Y-108230603D01*
X143165031Y-108230605D01*
X143092514Y-108405678D01*
X143092513Y-108405679D01*
X142987233Y-108563241D01*
X142853241Y-108697233D01*
X142773923Y-108750232D01*
X142695678Y-108802514D01*
X142560266Y-108858603D01*
X142520603Y-108875032D01*
X142334750Y-108912000D01*
X142145250Y-108912000D01*
X141959397Y-108875032D01*
X141919734Y-108858603D01*
X141784322Y-108802514D01*
X141706077Y-108750232D01*
X141626759Y-108697233D01*
X141492767Y-108563241D01*
X141387487Y-108405679D01*
X141387486Y-108405678D01*
X141314969Y-108230605D01*
X141314968Y-108230603D01*
X141278000Y-108044750D01*
X141278000Y-107855250D01*
X141314968Y-107669397D01*
X141357575Y-107566534D01*
X141387486Y-107494322D01*
X141492766Y-107336761D01*
X141492767Y-107336759D01*
X141626759Y-107202767D01*
X141784321Y-107097487D01*
X141784322Y-107097486D01*
X141959395Y-107024969D01*
X141959394Y-107024969D01*
X141959397Y-107024968D01*
X142145250Y-106988000D01*
X142334750Y-106988000D01*
X142520603Y-107024968D01*
X142520603Y-107024968D01*
G37*
G36*
X145060603Y-107024968D02*
X145060606Y-107024969D01*
X145060605Y-107024969D01*
X145235678Y-107097486D01*
X145235679Y-107097487D01*
X145393241Y-107202767D01*
X145527233Y-107336759D01*
X145527234Y-107336761D01*
X145632514Y-107494322D01*
X145662425Y-107566534D01*
X145705032Y-107669397D01*
X145742000Y-107855250D01*
X145742000Y-108044750D01*
X145705032Y-108230603D01*
X145705031Y-108230605D01*
X145632514Y-108405678D01*
X145632513Y-108405679D01*
X145527233Y-108563241D01*
X145393241Y-108697233D01*
X145313923Y-108750232D01*
X145235678Y-108802514D01*
X145100266Y-108858603D01*
X145060603Y-108875032D01*
X144874750Y-108912000D01*
X144685250Y-108912000D01*
X144499397Y-108875032D01*
X144459734Y-108858603D01*
X144324322Y-108802514D01*
X144246077Y-108750232D01*
X144166759Y-108697233D01*
X144032767Y-108563241D01*
X143927487Y-108405679D01*
X143927486Y-108405678D01*
X143854969Y-108230605D01*
X143854968Y-108230603D01*
X143818000Y-108044750D01*
X143818000Y-107855250D01*
X143854968Y-107669397D01*
X143897575Y-107566534D01*
X143927486Y-107494322D01*
X144032766Y-107336761D01*
X144032767Y-107336759D01*
X144166759Y-107202767D01*
X144324321Y-107097487D01*
X144324322Y-107097486D01*
X144499395Y-107024969D01*
X144499394Y-107024969D01*
X144499397Y-107024968D01*
X144685250Y-106988000D01*
X144874750Y-106988000D01*
X145060603Y-107024968D01*
X145060603Y-107024968D01*
G37*
G36*
X147600603Y-107024968D02*
X147600606Y-107024969D01*
X147600605Y-107024969D01*
X147775678Y-107097486D01*
X147775679Y-107097487D01*
X147933241Y-107202767D01*
X148067233Y-107336759D01*
X148067234Y-107336761D01*
X148172514Y-107494322D01*
X148202425Y-107566534D01*
X148245032Y-107669397D01*
X148282000Y-107855250D01*
X148282000Y-108044750D01*
X148245032Y-108230603D01*
X148245031Y-108230605D01*
X148172514Y-108405678D01*
X148172513Y-108405679D01*
X148067233Y-108563241D01*
X147933241Y-108697233D01*
X147853923Y-108750232D01*
X147775678Y-108802514D01*
X147640266Y-108858603D01*
X147600603Y-108875032D01*
X147414750Y-108912000D01*
X147225250Y-108912000D01*
X147039397Y-108875032D01*
X146999734Y-108858603D01*
X146864322Y-108802514D01*
X146786077Y-108750232D01*
X146706759Y-108697233D01*
X146572767Y-108563241D01*
X146467487Y-108405679D01*
X146467486Y-108405678D01*
X146394969Y-108230605D01*
X146394968Y-108230603D01*
X146358000Y-108044750D01*
X146358000Y-107855250D01*
X146394968Y-107669397D01*
X146437575Y-107566534D01*
X146467486Y-107494322D01*
X146572766Y-107336761D01*
X146572767Y-107336759D01*
X146706759Y-107202767D01*
X146864321Y-107097487D01*
X146864322Y-107097486D01*
X147039395Y-107024969D01*
X147039394Y-107024969D01*
X147039397Y-107024968D01*
X147225250Y-106988000D01*
X147414750Y-106988000D01*
X147600603Y-107024968D01*
X147600603Y-107024968D01*
G37*
G36*
X150140603Y-107024968D02*
X150140606Y-107024969D01*
X150140605Y-107024969D01*
X150315678Y-107097486D01*
X150315679Y-107097487D01*
X150473241Y-107202767D01*
X150607233Y-107336759D01*
X150607234Y-107336761D01*
X150712514Y-107494322D01*
X150742425Y-107566534D01*
X150785032Y-107669397D01*
X150822000Y-107855250D01*
X150822000Y-108044750D01*
X150785032Y-108230603D01*
X150785031Y-108230605D01*
X150712514Y-108405678D01*
X150712513Y-108405679D01*
X150607233Y-108563241D01*
X150473241Y-108697233D01*
X150393923Y-108750232D01*
X150315678Y-108802514D01*
X150180266Y-108858603D01*
X150140603Y-108875032D01*
X149954750Y-108912000D01*
X149765250Y-108912000D01*
X149579397Y-108875032D01*
X149539734Y-108858603D01*
X149404322Y-108802514D01*
X149326077Y-108750232D01*
X149246759Y-108697233D01*
X149112767Y-108563241D01*
X149007487Y-108405679D01*
X149007486Y-108405678D01*
X148934969Y-108230605D01*
X148934968Y-108230603D01*
X148898000Y-108044750D01*
X148898000Y-107855250D01*
X148934968Y-107669397D01*
X148977575Y-107566534D01*
X149007486Y-107494322D01*
X149112766Y-107336761D01*
X149112767Y-107336759D01*
X149246759Y-107202767D01*
X149404321Y-107097487D01*
X149404322Y-107097486D01*
X149579395Y-107024969D01*
X149579394Y-107024969D01*
X149579397Y-107024968D01*
X149765250Y-106988000D01*
X149954750Y-106988000D01*
X150140603Y-107024968D01*
X150140603Y-107024968D01*
G37*
G36*
X172130000Y-108630000D02*
X168230000Y-108630000D01*
X168230000Y-104730000D01*
X172130000Y-104730000D01*
X172130000Y-108630000D01*
X172130000Y-108630000D01*
G37*
G36*
X178130000Y-108630000D02*
X174230000Y-108630000D01*
X174230000Y-104730000D01*
X178130000Y-104730000D01*
X178130000Y-108630000D01*
X178130000Y-108630000D01*
G37*
G36*
X162594000Y-107222000D02*
X160494000Y-107222000D01*
X160494000Y-105122000D01*
X162594000Y-105122000D01*
X162594000Y-107222000D01*
X162594000Y-107222000D01*
G37*
G36*
X146225770Y-103155372D02*
X146341689Y-103178429D01*
X146523678Y-103253811D01*
X146687463Y-103363249D01*
X146826751Y-103502537D01*
X146936189Y-103666322D01*
X147011571Y-103848311D01*
X147050000Y-104041509D01*
X147050000Y-104238491D01*
X147011571Y-104431689D01*
X146936189Y-104613678D01*
X146826751Y-104777463D01*
X146687463Y-104916751D01*
X146523678Y-105026189D01*
X146341689Y-105101571D01*
X146238984Y-105122000D01*
X146148493Y-105140000D01*
X145951507Y-105140000D01*
X145861016Y-105122000D01*
X145758311Y-105101571D01*
X145576322Y-105026189D01*
X145412537Y-104916751D01*
X145273249Y-104777463D01*
X145163811Y-104613678D01*
X145088429Y-104431689D01*
X145050000Y-104238491D01*
X145050000Y-104041509D01*
X145088429Y-103848311D01*
X145163811Y-103666322D01*
X145273249Y-103502537D01*
X145412537Y-103363249D01*
X145576322Y-103253811D01*
X145758311Y-103178429D01*
X145874230Y-103155372D01*
X145951507Y-103140000D01*
X146148493Y-103140000D01*
X146225770Y-103155372D01*
X146225770Y-103155372D01*
G37*
G36*
X143685770Y-103155372D02*
X143801689Y-103178429D01*
X143983678Y-103253811D01*
X144147463Y-103363249D01*
X144286751Y-103502537D01*
X144396189Y-103666322D01*
X144471571Y-103848311D01*
X144510000Y-104041509D01*
X144510000Y-104238491D01*
X144471571Y-104431689D01*
X144396189Y-104613678D01*
X144286751Y-104777463D01*
X144147463Y-104916751D01*
X143983678Y-105026189D01*
X143801689Y-105101571D01*
X143698984Y-105122000D01*
X143608493Y-105140000D01*
X143411507Y-105140000D01*
X143321016Y-105122000D01*
X143218311Y-105101571D01*
X143036322Y-105026189D01*
X142872537Y-104916751D01*
X142733249Y-104777463D01*
X142623811Y-104613678D01*
X142548429Y-104431689D01*
X142510000Y-104238491D01*
X142510000Y-104041509D01*
X142548429Y-103848311D01*
X142623811Y-103666322D01*
X142733249Y-103502537D01*
X142872537Y-103363249D01*
X143036322Y-103253811D01*
X143218311Y-103178429D01*
X143334230Y-103155372D01*
X143411507Y-103140000D01*
X143608493Y-103140000D01*
X143685770Y-103155372D01*
X143685770Y-103155372D01*
G37*
G36*
X153866030Y-103154469D02*
X153866033Y-103154470D01*
X153866034Y-103154470D01*
X154054535Y-103211651D01*
X154054537Y-103211652D01*
X154228260Y-103304509D01*
X154380528Y-103429472D01*
X154505491Y-103581740D01*
X154598348Y-103755463D01*
X154655531Y-103943970D01*
X154674838Y-104140000D01*
X154655531Y-104336030D01*
X154598348Y-104524537D01*
X154505491Y-104698260D01*
X154380528Y-104850528D01*
X154228260Y-104975491D01*
X154228258Y-104975492D01*
X154054535Y-105068349D01*
X153866034Y-105125530D01*
X153866033Y-105125530D01*
X153866030Y-105125531D01*
X153719124Y-105140000D01*
X153620876Y-105140000D01*
X153473970Y-105125531D01*
X153473967Y-105125530D01*
X153473966Y-105125530D01*
X153285465Y-105068349D01*
X153111742Y-104975492D01*
X153111740Y-104975491D01*
X152959472Y-104850528D01*
X152834509Y-104698260D01*
X152741652Y-104524537D01*
X152684469Y-104336030D01*
X152665162Y-104140000D01*
X152684469Y-103943970D01*
X152741652Y-103755463D01*
X152834509Y-103581740D01*
X152959472Y-103429472D01*
X153111740Y-103304509D01*
X153285463Y-103211652D01*
X153285465Y-103211651D01*
X153473966Y-103154470D01*
X153473967Y-103154470D01*
X153473970Y-103154469D01*
X153620876Y-103140000D01*
X153719124Y-103140000D01*
X153866030Y-103154469D01*
X153866030Y-103154469D01*
G37*
G36*
X136086030Y-103154469D02*
X136086033Y-103154470D01*
X136086034Y-103154470D01*
X136274535Y-103211651D01*
X136274537Y-103211652D01*
X136448260Y-103304509D01*
X136600528Y-103429472D01*
X136725491Y-103581740D01*
X136818348Y-103755463D01*
X136875531Y-103943970D01*
X136894838Y-104140000D01*
X136875531Y-104336030D01*
X136818348Y-104524537D01*
X136725491Y-104698260D01*
X136600528Y-104850528D01*
X136448260Y-104975491D01*
X136448258Y-104975492D01*
X136274535Y-105068349D01*
X136086034Y-105125530D01*
X136086033Y-105125530D01*
X136086030Y-105125531D01*
X135939124Y-105140000D01*
X135840876Y-105140000D01*
X135693970Y-105125531D01*
X135693967Y-105125530D01*
X135693966Y-105125530D01*
X135505465Y-105068349D01*
X135331742Y-104975492D01*
X135331740Y-104975491D01*
X135179472Y-104850528D01*
X135054509Y-104698260D01*
X134961652Y-104524537D01*
X134904469Y-104336030D01*
X134885162Y-104140000D01*
X134904469Y-103943970D01*
X134961652Y-103755463D01*
X135054509Y-103581740D01*
X135179472Y-103429472D01*
X135331740Y-103304509D01*
X135505463Y-103211652D01*
X135505465Y-103211651D01*
X135693966Y-103154470D01*
X135693967Y-103154470D01*
X135693970Y-103154469D01*
X135840876Y-103140000D01*
X135939124Y-103140000D01*
X136086030Y-103154469D01*
X136086030Y-103154469D01*
G37*
G36*
X161672707Y-102589596D02*
X161749836Y-102597193D01*
X161881787Y-102637220D01*
X161947763Y-102657233D01*
X162130172Y-102754733D01*
X162290054Y-102885946D01*
X162421267Y-103045828D01*
X162518767Y-103228237D01*
X162538780Y-103294213D01*
X162578807Y-103426164D01*
X162599080Y-103632000D01*
X162578807Y-103837836D01*
X162550849Y-103930000D01*
X162518767Y-104035763D01*
X162421267Y-104218172D01*
X162290054Y-104378054D01*
X162130172Y-104509267D01*
X161947763Y-104606767D01*
X161881787Y-104626780D01*
X161749836Y-104666807D01*
X161672707Y-104674404D01*
X161595580Y-104682000D01*
X161492420Y-104682000D01*
X161415293Y-104674404D01*
X161338164Y-104666807D01*
X161206213Y-104626780D01*
X161140237Y-104606767D01*
X160957828Y-104509267D01*
X160797946Y-104378054D01*
X160666733Y-104218172D01*
X160569233Y-104035763D01*
X160537151Y-103930000D01*
X160509193Y-103837836D01*
X160488920Y-103632000D01*
X160509193Y-103426164D01*
X160549220Y-103294213D01*
X160569233Y-103228237D01*
X160666733Y-103045828D01*
X160797946Y-102885946D01*
X160957828Y-102754733D01*
X161140237Y-102657233D01*
X161206213Y-102637220D01*
X161338164Y-102597193D01*
X161415293Y-102589596D01*
X161492420Y-102582000D01*
X161595580Y-102582000D01*
X161672707Y-102589596D01*
X161672707Y-102589596D01*
G37*
G36*
X175130000Y-103930000D02*
X171230000Y-103930000D01*
X171230000Y-100030000D01*
X175130000Y-100030000D01*
X175130000Y-103930000D01*
X175130000Y-103930000D01*
G37*
G36*
X166312030Y-99598469D02*
X166312033Y-99598470D01*
X166312034Y-99598470D01*
X166500535Y-99655651D01*
X166500537Y-99655652D01*
X166674260Y-99748509D01*
X166826528Y-99873472D01*
X166951491Y-100025740D01*
X166951492Y-100025742D01*
X167044349Y-100199465D01*
X167101530Y-100387966D01*
X167101531Y-100387970D01*
X167120838Y-100584000D01*
X167101531Y-100780030D01*
X167044348Y-100968537D01*
X166951491Y-101142260D01*
X166826528Y-101294528D01*
X166674260Y-101419491D01*
X166674258Y-101419492D01*
X166500535Y-101512349D01*
X166312034Y-101569530D01*
X166312033Y-101569530D01*
X166312030Y-101569531D01*
X166165124Y-101584000D01*
X166066876Y-101584000D01*
X165919970Y-101569531D01*
X165919967Y-101569530D01*
X165919966Y-101569530D01*
X165731465Y-101512349D01*
X165557742Y-101419492D01*
X165557740Y-101419491D01*
X165405472Y-101294528D01*
X165280509Y-101142260D01*
X165187652Y-100968537D01*
X165130469Y-100780030D01*
X165111162Y-100584000D01*
X165130469Y-100387970D01*
X165130470Y-100387966D01*
X165187651Y-100199465D01*
X165280508Y-100025742D01*
X165280509Y-100025740D01*
X165405472Y-99873472D01*
X165557740Y-99748509D01*
X165731463Y-99655652D01*
X165731465Y-99655651D01*
X165919966Y-99598470D01*
X165919967Y-99598470D01*
X165919970Y-99598469D01*
X166066876Y-99584000D01*
X166165124Y-99584000D01*
X166312030Y-99598469D01*
X166312030Y-99598469D01*
G37*
G36*
X161672707Y-98525596D02*
X161749836Y-98533193D01*
X161881787Y-98573220D01*
X161947763Y-98593233D01*
X162130172Y-98690733D01*
X162290054Y-98821946D01*
X162421267Y-98981828D01*
X162518767Y-99164237D01*
X162518767Y-99164238D01*
X162578807Y-99362164D01*
X162599080Y-99568000D01*
X162578807Y-99773836D01*
X162555520Y-99850603D01*
X162518767Y-99971763D01*
X162421267Y-100154172D01*
X162290054Y-100314054D01*
X162130172Y-100445267D01*
X161947763Y-100542767D01*
X161881787Y-100562780D01*
X161749836Y-100602807D01*
X161672707Y-100610403D01*
X161595580Y-100618000D01*
X161492420Y-100618000D01*
X161415293Y-100610403D01*
X161338164Y-100602807D01*
X161206213Y-100562780D01*
X161140237Y-100542767D01*
X160957828Y-100445267D01*
X160797946Y-100314054D01*
X160666733Y-100154172D01*
X160569233Y-99971763D01*
X160532480Y-99850603D01*
X160509193Y-99773836D01*
X160488920Y-99568000D01*
X160509193Y-99362164D01*
X160569233Y-99164238D01*
X160569233Y-99164237D01*
X160666733Y-98981828D01*
X160797946Y-98821946D01*
X160957828Y-98690733D01*
X161140237Y-98593233D01*
X161206213Y-98573220D01*
X161338164Y-98533193D01*
X161415293Y-98525596D01*
X161492420Y-98518000D01*
X161595580Y-98518000D01*
X161672707Y-98525596D01*
X161672707Y-98525596D01*
G37*
G36*
X137440603Y-98644968D02*
X137440606Y-98644969D01*
X137440605Y-98644969D01*
X137615678Y-98717486D01*
X137615679Y-98717487D01*
X137773241Y-98822767D01*
X137907233Y-98956759D01*
X137923984Y-98981829D01*
X138012514Y-99114322D01*
X138068603Y-99249734D01*
X138085032Y-99289397D01*
X138122000Y-99475250D01*
X138122000Y-99664750D01*
X138085032Y-99850603D01*
X138085031Y-99850605D01*
X138012514Y-100025678D01*
X138012471Y-100025742D01*
X137907233Y-100183241D01*
X137773241Y-100317233D01*
X137693923Y-100370232D01*
X137615678Y-100422514D01*
X137480266Y-100478603D01*
X137440603Y-100495032D01*
X137254750Y-100532000D01*
X137065250Y-100532000D01*
X136879397Y-100495032D01*
X136839734Y-100478603D01*
X136704322Y-100422514D01*
X136626077Y-100370232D01*
X136546759Y-100317233D01*
X136412767Y-100183241D01*
X136307529Y-100025742D01*
X136307486Y-100025678D01*
X136234969Y-99850605D01*
X136234968Y-99850603D01*
X136198000Y-99664750D01*
X136198000Y-99475250D01*
X136234968Y-99289397D01*
X136251397Y-99249734D01*
X136307486Y-99114322D01*
X136396016Y-98981829D01*
X136412767Y-98956759D01*
X136546759Y-98822767D01*
X136704321Y-98717487D01*
X136704322Y-98717486D01*
X136879395Y-98644969D01*
X136879394Y-98644969D01*
X136879397Y-98644968D01*
X137065250Y-98608000D01*
X137254750Y-98608000D01*
X137440603Y-98644968D01*
X137440603Y-98644968D01*
G37*
G36*
X152934603Y-98644968D02*
X152934606Y-98644969D01*
X152934605Y-98644969D01*
X153109678Y-98717486D01*
X153109679Y-98717487D01*
X153267241Y-98822767D01*
X153401233Y-98956759D01*
X153417984Y-98981829D01*
X153506514Y-99114322D01*
X153562603Y-99249734D01*
X153579032Y-99289397D01*
X153616000Y-99475250D01*
X153616000Y-99664750D01*
X153579032Y-99850603D01*
X153579031Y-99850605D01*
X153506514Y-100025678D01*
X153506471Y-100025742D01*
X153401233Y-100183241D01*
X153267241Y-100317233D01*
X153187923Y-100370232D01*
X153109678Y-100422514D01*
X152974266Y-100478603D01*
X152934603Y-100495032D01*
X152748750Y-100532000D01*
X152559250Y-100532000D01*
X152373397Y-100495032D01*
X152333734Y-100478603D01*
X152198322Y-100422514D01*
X152120077Y-100370232D01*
X152040759Y-100317233D01*
X151906767Y-100183241D01*
X151801529Y-100025742D01*
X151801486Y-100025678D01*
X151728969Y-99850605D01*
X151728968Y-99850603D01*
X151692000Y-99664750D01*
X151692000Y-99475250D01*
X151728968Y-99289397D01*
X151745397Y-99249734D01*
X151801486Y-99114322D01*
X151890016Y-98981829D01*
X151906767Y-98956759D01*
X152040759Y-98822767D01*
X152198321Y-98717487D01*
X152198322Y-98717486D01*
X152373395Y-98644969D01*
X152373394Y-98644969D01*
X152373397Y-98644968D01*
X152559250Y-98608000D01*
X152748750Y-98608000D01*
X152934603Y-98644968D01*
X152934603Y-98644968D01*
G37*
G36*
X180144393Y-95833553D02*
X180253872Y-95855330D01*
X180563252Y-95983479D01*
X180841687Y-96169523D01*
X181078477Y-96406313D01*
X181264521Y-96684748D01*
X181392670Y-96994128D01*
X181407175Y-97067051D01*
X181440351Y-97233834D01*
X181458000Y-97322565D01*
X181458000Y-97657435D01*
X181392670Y-97985872D01*
X181264521Y-98295252D01*
X181078477Y-98573687D01*
X180841687Y-98810477D01*
X180563252Y-98996521D01*
X180253872Y-99124670D01*
X180144393Y-99146447D01*
X179925437Y-99190000D01*
X179590563Y-99190000D01*
X179371607Y-99146447D01*
X179262128Y-99124670D01*
X178952748Y-98996521D01*
X178674313Y-98810477D01*
X178437523Y-98573687D01*
X178251479Y-98295252D01*
X178123330Y-97985872D01*
X178058000Y-97657435D01*
X178058000Y-97322565D01*
X178075650Y-97233834D01*
X178108825Y-97067051D01*
X178123330Y-96994128D01*
X178251479Y-96684748D01*
X178437523Y-96406313D01*
X178674313Y-96169523D01*
X178952748Y-95983479D01*
X179262128Y-95855330D01*
X179371607Y-95833553D01*
X179590563Y-95790000D01*
X179925437Y-95790000D01*
X180144393Y-95833553D01*
X180144393Y-95833553D01*
G37*
G36*
X167980947Y-96095722D02*
X168244833Y-96205027D01*
X168482324Y-96363713D01*
X168684287Y-96565676D01*
X168842973Y-96803167D01*
X168952278Y-97067053D01*
X169008000Y-97347186D01*
X169008000Y-97632814D01*
X168952278Y-97912947D01*
X168842973Y-98176833D01*
X168684287Y-98414324D01*
X168482324Y-98616287D01*
X168244833Y-98774973D01*
X167980947Y-98884278D01*
X167700814Y-98940000D01*
X167415186Y-98940000D01*
X167135053Y-98884278D01*
X166871167Y-98774973D01*
X166633676Y-98616287D01*
X166431713Y-98414324D01*
X166273027Y-98176833D01*
X166163722Y-97912947D01*
X166108000Y-97632814D01*
X166108000Y-97347186D01*
X166163722Y-97067053D01*
X166273027Y-96803167D01*
X166431713Y-96565676D01*
X166633676Y-96363713D01*
X166871167Y-96205027D01*
X167135053Y-96095722D01*
X167415186Y-96040000D01*
X167700814Y-96040000D01*
X167980947Y-96095722D01*
X167980947Y-96095722D01*
G37*
G36*
X161651208Y-95983479D02*
X161749836Y-95993193D01*
X161881787Y-96033220D01*
X161947763Y-96053233D01*
X162130172Y-96150733D01*
X162290054Y-96281946D01*
X162421267Y-96441828D01*
X162518767Y-96624237D01*
X162518767Y-96624238D01*
X162578807Y-96822164D01*
X162599080Y-97028000D01*
X162578807Y-97233836D01*
X162551892Y-97322563D01*
X162518767Y-97431763D01*
X162421267Y-97614172D01*
X162290054Y-97774054D01*
X162130172Y-97905267D01*
X161947763Y-98002767D01*
X161881787Y-98022780D01*
X161749836Y-98062807D01*
X161672707Y-98070403D01*
X161595580Y-98078000D01*
X161492420Y-98078000D01*
X161415293Y-98070403D01*
X161338164Y-98062807D01*
X161206213Y-98022780D01*
X161140237Y-98002767D01*
X160957828Y-97905267D01*
X160797946Y-97774054D01*
X160666733Y-97614172D01*
X160569233Y-97431763D01*
X160536108Y-97322563D01*
X160509193Y-97233836D01*
X160488920Y-97028000D01*
X160509193Y-96822164D01*
X160569233Y-96624238D01*
X160569233Y-96624237D01*
X160666733Y-96441828D01*
X160797946Y-96281946D01*
X160957828Y-96150733D01*
X161140237Y-96053233D01*
X161206213Y-96033220D01*
X161338164Y-95993193D01*
X161436792Y-95983479D01*
X161492420Y-95978000D01*
X161595580Y-95978000D01*
X161651208Y-95983479D01*
X161651208Y-95983479D01*
G37*
G36*
X161672707Y-93445596D02*
X161749836Y-93453193D01*
X161881787Y-93493220D01*
X161947763Y-93513233D01*
X162130172Y-93610733D01*
X162290054Y-93741946D01*
X162421267Y-93901828D01*
X162518767Y-94084237D01*
X162518767Y-94084238D01*
X162578807Y-94282164D01*
X162599080Y-94488000D01*
X162578807Y-94693836D01*
X162538780Y-94825787D01*
X162518767Y-94891763D01*
X162421267Y-95074172D01*
X162290054Y-95234054D01*
X162130172Y-95365267D01*
X161947763Y-95462767D01*
X161881787Y-95482780D01*
X161749836Y-95522807D01*
X161672707Y-95530403D01*
X161595580Y-95538000D01*
X161492420Y-95538000D01*
X161415293Y-95530403D01*
X161338164Y-95522807D01*
X161206213Y-95482780D01*
X161140237Y-95462767D01*
X160957828Y-95365267D01*
X160797946Y-95234054D01*
X160666733Y-95074172D01*
X160569233Y-94891763D01*
X160549220Y-94825787D01*
X160509193Y-94693836D01*
X160488920Y-94488000D01*
X160509193Y-94282164D01*
X160569233Y-94084238D01*
X160569233Y-94084237D01*
X160666733Y-93901828D01*
X160797946Y-93741946D01*
X160957828Y-93610733D01*
X161140237Y-93513233D01*
X161206213Y-93493220D01*
X161338164Y-93453193D01*
X161415293Y-93445596D01*
X161492420Y-93438000D01*
X161595580Y-93438000D01*
X161672707Y-93445596D01*
X161672707Y-93445596D01*
G37*
G36*
X165994393Y-89783553D02*
X166103872Y-89805330D01*
X166413252Y-89933479D01*
X166691687Y-90119523D01*
X166928477Y-90356313D01*
X167114521Y-90634748D01*
X167242670Y-90944128D01*
X167308000Y-91272565D01*
X167308000Y-91607435D01*
X167242670Y-91935872D01*
X167114521Y-92245252D01*
X166928477Y-92523687D01*
X166691687Y-92760477D01*
X166413252Y-92946521D01*
X166103872Y-93074670D01*
X165994393Y-93096447D01*
X165775437Y-93140000D01*
X165440563Y-93140000D01*
X165221607Y-93096447D01*
X165112128Y-93074670D01*
X164802748Y-92946521D01*
X164524313Y-92760477D01*
X164287523Y-92523687D01*
X164101479Y-92245252D01*
X163973330Y-91935872D01*
X163908000Y-91607435D01*
X163908000Y-91272565D01*
X163973330Y-90944128D01*
X164101479Y-90634748D01*
X164287523Y-90356313D01*
X164524313Y-90119523D01*
X164802748Y-89933479D01*
X165112128Y-89805330D01*
X165221607Y-89783553D01*
X165440563Y-89740000D01*
X165775437Y-89740000D01*
X165994393Y-89783553D01*
X165994393Y-89783553D01*
G37*
G36*
X162594000Y-92998000D02*
X160494000Y-92998000D01*
X160494000Y-90898000D01*
X162594000Y-90898000D01*
X162594000Y-92998000D01*
X162594000Y-92998000D01*
G37*
G36*
X152934603Y-89244968D02*
X152934606Y-89244969D01*
X152934605Y-89244969D01*
X153109678Y-89317486D01*
X153109679Y-89317487D01*
X153267241Y-89422767D01*
X153401233Y-89556759D01*
X153401234Y-89556761D01*
X153506514Y-89714322D01*
X153517150Y-89740000D01*
X153579032Y-89889397D01*
X153616000Y-90075250D01*
X153616000Y-90264750D01*
X153579032Y-90450603D01*
X153579031Y-90450605D01*
X153506514Y-90625678D01*
X153500452Y-90634750D01*
X153401233Y-90783241D01*
X153267241Y-90917233D01*
X153226990Y-90944128D01*
X153109678Y-91022514D01*
X152974266Y-91078603D01*
X152934603Y-91095032D01*
X152748750Y-91132000D01*
X152559250Y-91132000D01*
X152373397Y-91095032D01*
X152333734Y-91078603D01*
X152198322Y-91022514D01*
X152081010Y-90944128D01*
X152040759Y-90917233D01*
X151906767Y-90783241D01*
X151807548Y-90634750D01*
X151801486Y-90625678D01*
X151728969Y-90450605D01*
X151728968Y-90450603D01*
X151692000Y-90264750D01*
X151692000Y-90075250D01*
X151728968Y-89889397D01*
X151790850Y-89740000D01*
X151801486Y-89714322D01*
X151906766Y-89556761D01*
X151906767Y-89556759D01*
X152040759Y-89422767D01*
X152198321Y-89317487D01*
X152198322Y-89317486D01*
X152373395Y-89244969D01*
X152373394Y-89244969D01*
X152373397Y-89244968D01*
X152559250Y-89208000D01*
X152748750Y-89208000D01*
X152934603Y-89244968D01*
X152934603Y-89244968D01*
G37*
G36*
X137440603Y-89244968D02*
X137440606Y-89244969D01*
X137440605Y-89244969D01*
X137615678Y-89317486D01*
X137615679Y-89317487D01*
X137773241Y-89422767D01*
X137907233Y-89556759D01*
X137907234Y-89556761D01*
X138012514Y-89714322D01*
X138023150Y-89740000D01*
X138085032Y-89889397D01*
X138122000Y-90075250D01*
X138122000Y-90264750D01*
X138085032Y-90450603D01*
X138085031Y-90450605D01*
X138012514Y-90625678D01*
X138006452Y-90634750D01*
X137907233Y-90783241D01*
X137773241Y-90917233D01*
X137732990Y-90944128D01*
X137615678Y-91022514D01*
X137480266Y-91078603D01*
X137440603Y-91095032D01*
X137254750Y-91132000D01*
X137065250Y-91132000D01*
X136879397Y-91095032D01*
X136839734Y-91078603D01*
X136704322Y-91022514D01*
X136587010Y-90944128D01*
X136546759Y-90917233D01*
X136412767Y-90783241D01*
X136313548Y-90634750D01*
X136307486Y-90625678D01*
X136234969Y-90450605D01*
X136234968Y-90450603D01*
X136198000Y-90264750D01*
X136198000Y-90075250D01*
X136234968Y-89889397D01*
X136296850Y-89740000D01*
X136307486Y-89714322D01*
X136412766Y-89556761D01*
X136412767Y-89556759D01*
X136546759Y-89422767D01*
X136704321Y-89317487D01*
X136704322Y-89317486D01*
X136879395Y-89244969D01*
X136879394Y-89244969D01*
X136879397Y-89244968D01*
X137065250Y-89208000D01*
X137254750Y-89208000D01*
X137440603Y-89244968D01*
X137440603Y-89244968D01*
G37*
G36*
X162594000Y-88934000D02*
X160494000Y-88934000D01*
X160494000Y-86834000D01*
X162594000Y-86834000D01*
X162594000Y-88934000D01*
X162594000Y-88934000D01*
G37*
G36*
X180194393Y-83783553D02*
X180303872Y-83805330D01*
X180613252Y-83933479D01*
X180891687Y-84119523D01*
X181128477Y-84356313D01*
X181314521Y-84634748D01*
X181442670Y-84944128D01*
X181442670Y-84944129D01*
X181508000Y-85272563D01*
X181508000Y-85607437D01*
X181488943Y-85703241D01*
X181442670Y-85935872D01*
X181314521Y-86245252D01*
X181128477Y-86523687D01*
X180891687Y-86760477D01*
X180613252Y-86946521D01*
X180303872Y-87074670D01*
X180194393Y-87096447D01*
X179975437Y-87140000D01*
X179640563Y-87140000D01*
X179421607Y-87096447D01*
X179312128Y-87074670D01*
X179002748Y-86946521D01*
X178724313Y-86760477D01*
X178487523Y-86523687D01*
X178301479Y-86245252D01*
X178173330Y-85935872D01*
X178127057Y-85703241D01*
X178108000Y-85607437D01*
X178108000Y-85272563D01*
X178173330Y-84944129D01*
X178173330Y-84944128D01*
X178301479Y-84634748D01*
X178487523Y-84356313D01*
X178724313Y-84119523D01*
X179002748Y-83933479D01*
X179312128Y-83805330D01*
X179421607Y-83783553D01*
X179640563Y-83740000D01*
X179975437Y-83740000D01*
X180194393Y-83783553D01*
X180194393Y-83783553D01*
G37*
G36*
X167980947Y-84095722D02*
X168244833Y-84205027D01*
X168482324Y-84363713D01*
X168684287Y-84565676D01*
X168842973Y-84803167D01*
X168952278Y-85067053D01*
X169008000Y-85347186D01*
X169008000Y-85632814D01*
X168952278Y-85912947D01*
X168842973Y-86176833D01*
X168684287Y-86414324D01*
X168482324Y-86616287D01*
X168244833Y-86774973D01*
X167980947Y-86884278D01*
X167700814Y-86940000D01*
X167415186Y-86940000D01*
X167135053Y-86884278D01*
X166871167Y-86774973D01*
X166633676Y-86616287D01*
X166431713Y-86414324D01*
X166273027Y-86176833D01*
X166163722Y-85912947D01*
X166108000Y-85632814D01*
X166108000Y-85347186D01*
X166163722Y-85067053D01*
X166273027Y-84803167D01*
X166431713Y-84565676D01*
X166633676Y-84363713D01*
X166871167Y-84205027D01*
X167135053Y-84095722D01*
X167415186Y-84040000D01*
X167700814Y-84040000D01*
X167980947Y-84095722D01*
X167980947Y-84095722D01*
G37*
G36*
X161672707Y-84301597D02*
X161749836Y-84309193D01*
X161860515Y-84342767D01*
X161947763Y-84369233D01*
X162130172Y-84466733D01*
X162290054Y-84597946D01*
X162421267Y-84757828D01*
X162518767Y-84940237D01*
X162535455Y-84995250D01*
X162578807Y-85138164D01*
X162599080Y-85344000D01*
X162578807Y-85549836D01*
X162561334Y-85607437D01*
X162518767Y-85747763D01*
X162421267Y-85930172D01*
X162290054Y-86090054D01*
X162130172Y-86221267D01*
X161947763Y-86318767D01*
X161881787Y-86338780D01*
X161749836Y-86378807D01*
X161672707Y-86386403D01*
X161595580Y-86394000D01*
X161492420Y-86394000D01*
X161415293Y-86386403D01*
X161338164Y-86378807D01*
X161206213Y-86338780D01*
X161140237Y-86318767D01*
X160957828Y-86221267D01*
X160797946Y-86090054D01*
X160666733Y-85930172D01*
X160569233Y-85747763D01*
X160526666Y-85607437D01*
X160509193Y-85549836D01*
X160488920Y-85344000D01*
X160509193Y-85138164D01*
X160552545Y-84995250D01*
X160569233Y-84940237D01*
X160666733Y-84757828D01*
X160797946Y-84597946D01*
X160957828Y-84466733D01*
X161140237Y-84369233D01*
X161227485Y-84342767D01*
X161338164Y-84309193D01*
X161415293Y-84301597D01*
X161492420Y-84294000D01*
X161595580Y-84294000D01*
X161672707Y-84301597D01*
X161672707Y-84301597D01*
G37*
G36*
X137440603Y-84164968D02*
X137440606Y-84164969D01*
X137440605Y-84164969D01*
X137615678Y-84237486D01*
X137615679Y-84237487D01*
X137773241Y-84342767D01*
X137907233Y-84476759D01*
X137907234Y-84476761D01*
X138012514Y-84634322D01*
X138012690Y-84634748D01*
X138085032Y-84809397D01*
X138122000Y-84995250D01*
X138122000Y-85184750D01*
X138085032Y-85370603D01*
X138085031Y-85370605D01*
X138012514Y-85545678D01*
X137960232Y-85623923D01*
X137907233Y-85703241D01*
X137773241Y-85837233D01*
X137693923Y-85890232D01*
X137615678Y-85942514D01*
X137480266Y-85998603D01*
X137440603Y-86015032D01*
X137254750Y-86052000D01*
X137065250Y-86052000D01*
X136879397Y-86015032D01*
X136839734Y-85998603D01*
X136704322Y-85942514D01*
X136626077Y-85890232D01*
X136546759Y-85837233D01*
X136412767Y-85703241D01*
X136359768Y-85623923D01*
X136307486Y-85545678D01*
X136234969Y-85370605D01*
X136234968Y-85370603D01*
X136198000Y-85184750D01*
X136198000Y-84995250D01*
X136234968Y-84809397D01*
X136307310Y-84634748D01*
X136307486Y-84634322D01*
X136412766Y-84476761D01*
X136412767Y-84476759D01*
X136546759Y-84342767D01*
X136704321Y-84237487D01*
X136704322Y-84237486D01*
X136879395Y-84164969D01*
X136879394Y-84164969D01*
X136879397Y-84164968D01*
X137065250Y-84128000D01*
X137254750Y-84128000D01*
X137440603Y-84164968D01*
X137440603Y-84164968D01*
G37*
G36*
X139980603Y-84164968D02*
X139980606Y-84164969D01*
X139980605Y-84164969D01*
X140155678Y-84237486D01*
X140155679Y-84237487D01*
X140313241Y-84342767D01*
X140447233Y-84476759D01*
X140447234Y-84476761D01*
X140552514Y-84634322D01*
X140552690Y-84634748D01*
X140625032Y-84809397D01*
X140662000Y-84995250D01*
X140662000Y-85184750D01*
X140625032Y-85370603D01*
X140625031Y-85370605D01*
X140552514Y-85545678D01*
X140500232Y-85623923D01*
X140447233Y-85703241D01*
X140313241Y-85837233D01*
X140233923Y-85890232D01*
X140155678Y-85942514D01*
X140020266Y-85998603D01*
X139980603Y-86015032D01*
X139794750Y-86052000D01*
X139605250Y-86052000D01*
X139419397Y-86015032D01*
X139379734Y-85998603D01*
X139244322Y-85942514D01*
X139166077Y-85890232D01*
X139086759Y-85837233D01*
X138952767Y-85703241D01*
X138899768Y-85623923D01*
X138847486Y-85545678D01*
X138774969Y-85370605D01*
X138774968Y-85370603D01*
X138738000Y-85184750D01*
X138738000Y-84995250D01*
X138774968Y-84809397D01*
X138847310Y-84634748D01*
X138847486Y-84634322D01*
X138952766Y-84476761D01*
X138952767Y-84476759D01*
X139086759Y-84342767D01*
X139244321Y-84237487D01*
X139244322Y-84237486D01*
X139419395Y-84164969D01*
X139419394Y-84164969D01*
X139419397Y-84164968D01*
X139605250Y-84128000D01*
X139794750Y-84128000D01*
X139980603Y-84164968D01*
X139980603Y-84164968D01*
G37*
G36*
X134900603Y-84164968D02*
X134900606Y-84164969D01*
X134900605Y-84164969D01*
X135075678Y-84237486D01*
X135075679Y-84237487D01*
X135233241Y-84342767D01*
X135367233Y-84476759D01*
X135367234Y-84476761D01*
X135472514Y-84634322D01*
X135472690Y-84634748D01*
X135545032Y-84809397D01*
X135582000Y-84995250D01*
X135582000Y-85184750D01*
X135545032Y-85370603D01*
X135545031Y-85370605D01*
X135472514Y-85545678D01*
X135420232Y-85623923D01*
X135367233Y-85703241D01*
X135233241Y-85837233D01*
X135153923Y-85890232D01*
X135075678Y-85942514D01*
X134940266Y-85998603D01*
X134900603Y-86015032D01*
X134714750Y-86052000D01*
X134525250Y-86052000D01*
X134339397Y-86015032D01*
X134299734Y-85998603D01*
X134164322Y-85942514D01*
X134086077Y-85890232D01*
X134006759Y-85837233D01*
X133872767Y-85703241D01*
X133819768Y-85623923D01*
X133767486Y-85545678D01*
X133694969Y-85370605D01*
X133694968Y-85370603D01*
X133658000Y-85184750D01*
X133658000Y-84995250D01*
X133694968Y-84809397D01*
X133767310Y-84634748D01*
X133767486Y-84634322D01*
X133872766Y-84476761D01*
X133872767Y-84476759D01*
X134006759Y-84342767D01*
X134164321Y-84237487D01*
X134164322Y-84237486D01*
X134339395Y-84164969D01*
X134339394Y-84164969D01*
X134339397Y-84164968D01*
X134525250Y-84128000D01*
X134714750Y-84128000D01*
X134900603Y-84164968D01*
X134900603Y-84164968D01*
G37*
G36*
X145060603Y-84164968D02*
X145060606Y-84164969D01*
X145060605Y-84164969D01*
X145235678Y-84237486D01*
X145235679Y-84237487D01*
X145393241Y-84342767D01*
X145527233Y-84476759D01*
X145527234Y-84476761D01*
X145632514Y-84634322D01*
X145632690Y-84634748D01*
X145705032Y-84809397D01*
X145742000Y-84995250D01*
X145742000Y-85184750D01*
X145705032Y-85370603D01*
X145705031Y-85370605D01*
X145632514Y-85545678D01*
X145580232Y-85623923D01*
X145527233Y-85703241D01*
X145393241Y-85837233D01*
X145313923Y-85890232D01*
X145235678Y-85942514D01*
X145100266Y-85998603D01*
X145060603Y-86015032D01*
X144874750Y-86052000D01*
X144685250Y-86052000D01*
X144499397Y-86015032D01*
X144459734Y-85998603D01*
X144324322Y-85942514D01*
X144246077Y-85890232D01*
X144166759Y-85837233D01*
X144032767Y-85703241D01*
X143979768Y-85623923D01*
X143927486Y-85545678D01*
X143854969Y-85370605D01*
X143854968Y-85370603D01*
X143818000Y-85184750D01*
X143818000Y-84995250D01*
X143854968Y-84809397D01*
X143927310Y-84634748D01*
X143927486Y-84634322D01*
X144032766Y-84476761D01*
X144032767Y-84476759D01*
X144166759Y-84342767D01*
X144324321Y-84237487D01*
X144324322Y-84237486D01*
X144499395Y-84164969D01*
X144499394Y-84164969D01*
X144499397Y-84164968D01*
X144685250Y-84128000D01*
X144874750Y-84128000D01*
X145060603Y-84164968D01*
X145060603Y-84164968D01*
G37*
G36*
X147600603Y-84164968D02*
X147600606Y-84164969D01*
X147600605Y-84164969D01*
X147775678Y-84237486D01*
X147775679Y-84237487D01*
X147933241Y-84342767D01*
X148067233Y-84476759D01*
X148067234Y-84476761D01*
X148172514Y-84634322D01*
X148172690Y-84634748D01*
X148245032Y-84809397D01*
X148282000Y-84995250D01*
X148282000Y-85184750D01*
X148245032Y-85370603D01*
X148245031Y-85370605D01*
X148172514Y-85545678D01*
X148120232Y-85623923D01*
X148067233Y-85703241D01*
X147933241Y-85837233D01*
X147853923Y-85890232D01*
X147775678Y-85942514D01*
X147640266Y-85998603D01*
X147600603Y-86015032D01*
X147414750Y-86052000D01*
X147225250Y-86052000D01*
X147039397Y-86015032D01*
X146999734Y-85998603D01*
X146864322Y-85942514D01*
X146786077Y-85890232D01*
X146706759Y-85837233D01*
X146572767Y-85703241D01*
X146519768Y-85623923D01*
X146467486Y-85545678D01*
X146394969Y-85370605D01*
X146394968Y-85370603D01*
X146358000Y-85184750D01*
X146358000Y-84995250D01*
X146394968Y-84809397D01*
X146467310Y-84634748D01*
X146467486Y-84634322D01*
X146572766Y-84476761D01*
X146572767Y-84476759D01*
X146706759Y-84342767D01*
X146864321Y-84237487D01*
X146864322Y-84237486D01*
X147039395Y-84164969D01*
X147039394Y-84164969D01*
X147039397Y-84164968D01*
X147225250Y-84128000D01*
X147414750Y-84128000D01*
X147600603Y-84164968D01*
X147600603Y-84164968D01*
G37*
G36*
X150140603Y-84164968D02*
X150140606Y-84164969D01*
X150140605Y-84164969D01*
X150315678Y-84237486D01*
X150315679Y-84237487D01*
X150473241Y-84342767D01*
X150607233Y-84476759D01*
X150607234Y-84476761D01*
X150712514Y-84634322D01*
X150712690Y-84634748D01*
X150785032Y-84809397D01*
X150822000Y-84995250D01*
X150822000Y-85184750D01*
X150785032Y-85370603D01*
X150785031Y-85370605D01*
X150712514Y-85545678D01*
X150660232Y-85623923D01*
X150607233Y-85703241D01*
X150473241Y-85837233D01*
X150393923Y-85890232D01*
X150315678Y-85942514D01*
X150180266Y-85998603D01*
X150140603Y-86015032D01*
X149954750Y-86052000D01*
X149765250Y-86052000D01*
X149579397Y-86015032D01*
X149539734Y-85998603D01*
X149404322Y-85942514D01*
X149326077Y-85890232D01*
X149246759Y-85837233D01*
X149112767Y-85703241D01*
X149059768Y-85623923D01*
X149007486Y-85545678D01*
X148934969Y-85370605D01*
X148934968Y-85370603D01*
X148898000Y-85184750D01*
X148898000Y-84995250D01*
X148934968Y-84809397D01*
X149007310Y-84634748D01*
X149007486Y-84634322D01*
X149112766Y-84476761D01*
X149112767Y-84476759D01*
X149246759Y-84342767D01*
X149404321Y-84237487D01*
X149404322Y-84237486D01*
X149579395Y-84164969D01*
X149579394Y-84164969D01*
X149579397Y-84164968D01*
X149765250Y-84128000D01*
X149954750Y-84128000D01*
X150140603Y-84164968D01*
X150140603Y-84164968D01*
G37*
G36*
X152680603Y-84164968D02*
X152680606Y-84164969D01*
X152680605Y-84164969D01*
X152855678Y-84237486D01*
X152855679Y-84237487D01*
X153013241Y-84342767D01*
X153147233Y-84476759D01*
X153147234Y-84476761D01*
X153252514Y-84634322D01*
X153252690Y-84634748D01*
X153325032Y-84809397D01*
X153362000Y-84995250D01*
X153362000Y-85184750D01*
X153325032Y-85370603D01*
X153325031Y-85370605D01*
X153252514Y-85545678D01*
X153200232Y-85623923D01*
X153147233Y-85703241D01*
X153013241Y-85837233D01*
X152933923Y-85890232D01*
X152855678Y-85942514D01*
X152720266Y-85998603D01*
X152680603Y-86015032D01*
X152494750Y-86052000D01*
X152305250Y-86052000D01*
X152119397Y-86015032D01*
X152079734Y-85998603D01*
X151944322Y-85942514D01*
X151866077Y-85890232D01*
X151786759Y-85837233D01*
X151652767Y-85703241D01*
X151599768Y-85623923D01*
X151547486Y-85545678D01*
X151474969Y-85370605D01*
X151474968Y-85370603D01*
X151438000Y-85184750D01*
X151438000Y-84995250D01*
X151474968Y-84809397D01*
X151547310Y-84634748D01*
X151547486Y-84634322D01*
X151652766Y-84476761D01*
X151652767Y-84476759D01*
X151786759Y-84342767D01*
X151944321Y-84237487D01*
X151944322Y-84237486D01*
X152119395Y-84164969D01*
X152119394Y-84164969D01*
X152119397Y-84164968D01*
X152305250Y-84128000D01*
X152494750Y-84128000D01*
X152680603Y-84164968D01*
X152680603Y-84164968D01*
G37*
G36*
X142520603Y-84164968D02*
X142520606Y-84164969D01*
X142520605Y-84164969D01*
X142695678Y-84237486D01*
X142695679Y-84237487D01*
X142853241Y-84342767D01*
X142987233Y-84476759D01*
X142987234Y-84476761D01*
X143092514Y-84634322D01*
X143092690Y-84634748D01*
X143165032Y-84809397D01*
X143202000Y-84995250D01*
X143202000Y-85184750D01*
X143165032Y-85370603D01*
X143165031Y-85370605D01*
X143092514Y-85545678D01*
X143040232Y-85623923D01*
X142987233Y-85703241D01*
X142853241Y-85837233D01*
X142773923Y-85890232D01*
X142695678Y-85942514D01*
X142560266Y-85998603D01*
X142520603Y-86015032D01*
X142334750Y-86052000D01*
X142145250Y-86052000D01*
X141959397Y-86015032D01*
X141919734Y-85998603D01*
X141784322Y-85942514D01*
X141706077Y-85890232D01*
X141626759Y-85837233D01*
X141492767Y-85703241D01*
X141439768Y-85623923D01*
X141387486Y-85545678D01*
X141314969Y-85370605D01*
X141314968Y-85370603D01*
X141278000Y-85184750D01*
X141278000Y-84995250D01*
X141314968Y-84809397D01*
X141387310Y-84634748D01*
X141387486Y-84634322D01*
X141492766Y-84476761D01*
X141492767Y-84476759D01*
X141626759Y-84342767D01*
X141784321Y-84237487D01*
X141784322Y-84237486D01*
X141959395Y-84164969D01*
X141959394Y-84164969D01*
X141959397Y-84164968D01*
X142145250Y-84128000D01*
X142334750Y-84128000D01*
X142520603Y-84164968D01*
X142520603Y-84164968D01*
G37*
M02*
