M48
;DRILL file {KiCad 6.0.0-rc1-unknown-r14177-12567c75} date Tue 23 Oct 2018 17:30:18 CEST
;FORMAT={-:-/ absolute / inch / decimal}
FMAT,2
INCH
T1C0.0300
T2C0.0315
T3C0.0394
T4C0.0512
%
G90
G05
M72
T1
X5.3Y-3.35
X5.3Y-4.25
X5.4Y-3.35
X5.4Y-4.25
X5.5Y-3.35
X5.5Y-4.25
X5.6Y-3.35
X5.6Y-4.25
X5.7Y-3.35
X5.7Y-4.25
X5.8Y-3.35
X5.8Y-4.25
X5.9Y-3.35
X5.9Y-4.25
X6.0Y-3.35
X6.0Y-4.25
X5.4Y-3.55
X5.4Y-3.9201
X6.01Y-3.55
X6.01Y-3.9201
T2
X5.35Y-4.1
X5.65Y-4.1
X6.54Y-3.96
X6.54Y-4.26
X5.75Y-4.1
X6.05Y-4.1
T3
X5.58Y-4.38
X5.68Y-4.38
X5.78Y-4.38
X5.88Y-4.38
X5.98Y-4.38
X6.08Y-4.38
X6.32Y-4.41
X6.42Y-4.41
X6.52Y-4.41
X5.28Y-4.38
X5.38Y-4.38
X6.36Y-4.08
X6.36Y-4.18
X6.36Y-3.36
X6.36Y-3.46
X6.5968Y-3.3657
X6.5968Y-3.8382
X6.36Y-3.62
X6.36Y-3.72
X6.36Y-3.82
X6.36Y-3.92
T4
X6.52Y-3.6
X7.0771Y-3.8382
X7.0791Y-3.3638
T3
G00X6.7Y-4.2394
M15
G01X6.7Y-4.1606
M16
G05
G00X6.8575Y-4.015
M15
G01X6.7787Y-4.015
M16
G05
G00X6.9362Y-4.2394
M15
G01X6.9362Y-4.1606
M16
G05
T0
M30
